<svg width="200" height="200" viewBox="0 0 200 200" xmlns="http://www.w3.org/2000/svg">
  <defs>
    <linearGradient id="magentaGradient" x1="0%" y1="0%" x2="100%" y2="100%">
      <stop offset="0%" style="stop-color:#ff00ff;stop-opacity:1" />
      <stop offset="50%" style="stop-color:#cc00cc;stop-opacity:1" />
      <stop offset="100%" style="stop-color:#ff00ff;stop-opacity:1" />
    </linearGradient>
    <filter id="glow" x="-50%" y="-50%" width="200%" height="200%">
      <feGaussianBlur in="SourceGraphic" stdDeviation="2" result="blur" />
      <feColorMatrix in="blur" type="matrix" values="1 0 0 0 0  0 1 0 0 0  0 0 1 0 0  0 0 0 15 -6" result="glow" />
      <feBlend in="SourceGraphic" in2="glow" mode="screen" />
    </filter>
  </defs>
  <g fill="none" fill-rule="evenodd">
    <!-- Robotic head/humanoid representation -->
    <g transform="translate(50, 50)">
      <!-- Head/Brain unit -->
      <path d="M0,-20 C11,-20 20,-11 20,0 C20,11 11,20 0,20 C-11,20 -20,11 -20,0 C-20,-11 -11,-20 0,-20 Z"
            fill="url(#magentaGradient)"
            filter="url(#glow)"
            opacity="0.9" />

      <!-- Circuit pattern inside head -->
      <path d="M-8,-8 L8,-8 L8,8 L-8,8 Z"
            stroke="white"
            stroke-width="1.2"
            fill="none"
            opacity="0.6" />

      <!-- Neural network nodes -->
      <circle cx="-10" cy="-10" r="1.5" fill="white" opacity="0.7" />
      <circle cx="10" cy="-10" r="1.5" fill="white" opacity="0.7" />
      <circle cx="-10" cy="10" r="1.5" fill="white" opacity="0.7" />
      <circle cx="10" cy="10" r="1.5" fill="white" opacity="0.7" />
      <circle cx="0" cy="0" r="1.5" fill="white" opacity="0.7" />

      <!-- Connection lines -->
      <line x1="-10" y1="-10" x2="0" y2="0" stroke="white" stroke-width="0.8" opacity="0.4" />
      <line x1="10" y1="-10" x2="0" y2="0" stroke="white" stroke-width="0.8" opacity="0.4" />
      <line x1="-10" y1="10" x2="0" y2="0" stroke="white" stroke-width="0.8" opacity="0.4" />
      <line x1="10" y1="10" x2="0" y2="0" stroke="white" stroke-width="0.8" opacity="0.4" />

      <!-- Eye indicators -->
      <circle cx="-5" cy="-3" r="2" fill="white" opacity="0.8" />
      <circle cx="5" cy="-3" r="2" fill="white" opacity="0.8" />

      <!-- Body/torso connection -->
      <rect x="-8" y="20" width="16" height="15" fill="url(#magentaGradient)" opacity="0.7" />

      <!-- Arm connections -->
      <line x1="-8" y1="25" x2="-15" y2="25" stroke="url(#magentaGradient)" stroke-width="3" opacity="0.7" />
      <line x1="8" y1="25" x2="15" y2="25" stroke="url(#magentaGradient)" stroke-width="3" opacity="0.7" />

      <!-- Subtle background elements -->
      <circle cx="0" cy="0" r="25" stroke="url(#magentaGradient)" stroke-width="0.5" fill="none" opacity="0.2" />
    </g>
  </g>
</svg>